<svg xmlns="http://www.w3.org/2000/svg" version="1.1" xmlns:xlink="http://www.w3.org/1999/xlink" xmlns:svgjs="http://svgjs.dev/svgjs" width="1440" height="560" preserveAspectRatio="none" viewBox="0 0 1440 560"><g mask="url(&quot;#SvgjsMask1013&quot;)" fill="none"><path d="M479.353,684.958C515.805,683.549,551.139,669.629,570.334,638.608C590.555,605.928,592.955,564.854,574.543,531.122C555.356,495.971,519.372,473.417,479.353,471.927C436.517,470.332,393.019,486.743,371.041,523.546C348.57,561.175,350.891,609.754,375.312,646.148C397.417,679.091,439.711,686.491,479.353,684.958" fill="rgba(71, 114, 255, 1)" class="triangle-float2"></path><path d="M365.24812854978694 387.5442077331973L448.8775691358569 439.80168207275443 485.44906035215763 288.2287840238709z" fill="rgba(71, 114, 255, 1)" class="triangle-float1"></path><path d="M45.02576323320019 55.34703653022848L-54.414849911750196 85.74908295170118 40.90852629293405 219.7089794583904z" fill="rgba(71, 114, 255, 1)" class="triangle-float2"></path><path d="M1106.3324877136126 261.0130757830519L1134.559930713226 393.8127540326203 1239.132165963181 232.7856327834383z" fill="rgba(71, 114, 255, 1)" class="triangle-float3"></path><path d="M224.75 72.38 a161.15 161.15 0 1 0 322.3 0 a161.15 161.15 0 1 0 -322.3 0z" fill="rgba(71, 114, 255, 1)" class="triangle-float3"></path><path d="M349.4438001427822-51.61006385942896L255.12104368874435-33.27557730117134 273.45553024700195 61.04717915286653 367.77828670103986 42.71269259460891z" fill="rgba(71, 114, 255, 1)" class="triangle-float3"></path></g><defs><mask id="SvgjsMask1013"><rect width="1440" height="560" fill="#ffffff"></rect></mask><style>
                @keyframes float1 {
                    0%{transform: translate(0, 0)}
                    50%{transform: translate(-10px, 0)}
                    100%{transform: translate(0, 0)}
                }

                .triangle-float1 {
                    animation: float1 5s infinite;
                }

                @keyframes float2 {
                    0%{transform: translate(0, 0)}
                    50%{transform: translate(-5px, -5px)}
                    100%{transform: translate(0, 0)}
                }

                .triangle-float2 {
                    animation: float2 4s infinite;
                }

                @keyframes float3 {
                    0%{transform: translate(0, 0)}
                    50%{transform: translate(0, -10px)}
                    100%{transform: translate(0, 0)}
                }

                .triangle-float3 {
                    animation: float3 6s infinite;
                }
            </style></defs></svg>