<svg xmlns="http://www.w3.org/2000/svg" version="1.1" xmlns:xlink="http://www.w3.org/1999/xlink" xmlns:svgjs="http://svgjs.dev/svgjs" width="1440" height="560" preserveAspectRatio="none" viewBox="0 0 1440 560"><g mask="url(&quot;#SvgjsMask1003&quot;)" fill="none"><path d="M-18.84 395.76C155.27 389.69 295.99 115.07 619.31 115.76 942.63 116.45 1058.32 577.6 1257.46 604.6" stroke="rgba(0, 0, 0, 1)" stroke-width="2"></path><path d="M-137.76 382.9C28.42 382.43 183.16 264.1 516.5 265.3 849.83 266.5 982.81 626.28 1170.75 639.16" stroke="rgba(0, 0, 0, 1)" stroke-width="2"></path><path d="M-108.63 426.51C68.26 422.85 220.55 185.19 556.85 185.71 893.15 186.23 1024.34 602.78 1222.33 621.6" stroke="rgba(0, 0, 0, 1)" stroke-width="2"></path><path d="M-175.07 203.93C11.91 207.95 245.61 454.87 527.27 461.53 808.93 468.19 783.73 601.38 878.44 604.06" stroke="rgba(0, 0, 0, 1)" stroke-width="2"></path><path d="M-21.29 356.78C86.78 357.01 192 426.78 405.28 426.78 618.57 426.78 610.62 354.64 831.85 356.78 1053.08 358.92 1128.18 646.76 1258.42 661.92" stroke="rgba(0, 0, 0, 1)" stroke-width="2"></path></g><defs><mask id="SvgjsMask1003"><rect width="1440" height="560" fill="#ffffff"></rect></mask></defs></svg>