<svg xmlns="http://www.w3.org/2000/svg" version="1.1" xmlns:xlink="http://www.w3.org/1999/xlink" xmlns:svgjs="http://svgjs.dev/svgjs" width="1440" height="560" preserveAspectRatio="none" viewBox="0 0 1440 560"><g clip-path="url(&quot;#SvgjsClipPath1034&quot;)" fill="none"><circle r="93.335" cx="-17.13" cy="12.2" stroke="#785dff" stroke-opacity="1" stroke-width="2"></circle><circle r="93.335" cx="349.17" cy="401.52" stroke="#785dff" stroke-opacity="1" stroke-width="2"></circle><circle r="93.335" cx="656.54" cy="787.63" stroke="#785dff" stroke-opacity="1" stroke-width="2"></circle><circle r="160.1" cx="902.23" cy="426.42" stroke="#785dff" stroke-opacity="1" stroke-width="2"></circle><circle r="70.85" cx="1234.28" cy="154.04" stroke="#785dff" stroke-opacity="1" stroke-width="2"></circle><circle r="54.955" cx="29.88" cy="127.8" stroke="#785dff" stroke-opacity="1" stroke-width="2"></circle><circle r="123.545" cx="1269.51" cy="419.44" stroke="#785dff" stroke-opacity="1" stroke-width="2"></circle><circle r="51.54" cx="810.9" cy="520.35" stroke="#785dff" stroke-opacity="1" stroke-width="2"></circle><circle r="96.3" cx="54.88" cy="176.1" stroke="#785dff" stroke-opacity="1" stroke-width="2"></circle><circle r="56.41" cx="566.08" cy="218.44" stroke="#785dff" stroke-opacity="1" stroke-width="2"></circle><circle r="93.715" cx="1007.29" cy="62.99" stroke="#785dff" stroke-opacity="1" stroke-width="2"></circle><circle r="85.04" cx="284.49" cy="222.48" stroke="#785dff" stroke-opacity="1" stroke-width="2"></circle><circle r="123.095" cx="1098.14" cy="295.66" stroke="#785dff" stroke-opacity="1" stroke-width="2"></circle><circle r="47.585" cx="1324.75" cy="414.64" stroke="#785dff" stroke-opacity="1" stroke-width="2"></circle><circle r="62.115" cx="1357.93" cy="430.55" stroke="#785dff" stroke-opacity="1" stroke-width="2"></circle><circle r="62.78" cx="713.39" cy="534.99" stroke="#785dff" stroke-opacity="1" stroke-width="2"></circle><circle r="180.82" cx="418.42" cy="478.81" stroke="#785dff" stroke-opacity="1" stroke-width="2"></circle><circle r="51.27" cx="749.25" cy="407.07" stroke="#785dff" stroke-opacity="1" stroke-width="2"></circle><circle r="78.25" cx="474.52" cy="61.73" stroke="#785dff" stroke-opacity="1" stroke-width="2"></circle><circle r="127.47" cx="709.34" cy="106.27" stroke="#785dff" stroke-opacity="1" stroke-width="2"></circle><circle r="151.565" cx="1169.83" cy="405.85" stroke="#785dff" stroke-opacity="1" stroke-width="2"></circle><circle r="94.345" cx="1226.72" cy="279.72" stroke="#785dff" stroke-opacity="1" stroke-width="2"></circle><circle r="180.235" cx="1349.1" cy="78.98" stroke="#785dff" stroke-opacity="1" stroke-width="2"></circle><circle r="109.36" cx="1380.31" cy="464.58" stroke="#785dff" stroke-opacity="1" stroke-width="2"></circle><circle r="61.72" cx="1012.56" cy="140.99" stroke="#785dff" stroke-opacity="1" stroke-width="2"></circle><circle r="99" cx="1297.39" cy="138.65" stroke="#785dff" stroke-opacity="1" stroke-width="2"></circle><circle r="177.805" cx="63.32" cy="89.26" stroke="#785dff" stroke-opacity="1" stroke-width="2"></circle><circle r="107.225" cx="1238.41" cy="0.79" stroke="#785dff" stroke-opacity="1" stroke-width="2"></circle><circle r="147.535" cx="855.95" cy="542.31" stroke="#785dff" stroke-opacity="1" stroke-width="2"></circle><circle r="48.26" cx="840.43" cy="347.39" stroke="#785dff" stroke-opacity="1" stroke-width="2"></circle></g><defs><clipPath id="SvgjsClipPath1034"><rect width="1440" height="560" x="0" y="0"></rect></clipPath></defs></svg>