<svg xmlns="http://www.w3.org/2000/svg" viewBox="0 0 48 48"><defs><style>.cls-1{fill:#dad7e5}.cls-3{fill:#c6c3d8}.cls-6{fill:#425b72}</style></defs><g id="Web_Translate" data-name="Web Translate"><path class="cls-1" d="M47 9c0 37.11.15 34.52-.36 35.64A4 4 0 0 1 43 47H5a4 4 0 0 1-4-4V9z"/><path d="M47 9c0 37.11.15 34.52-.36 35.64A3.93 3.93 0 0 1 45 45H11a8 8 0 0 1-8-8V9z" style="fill:#edebf2"/><path class="cls-3" d="M40 24c0 10.9 0 10.2-.07 10.58C39.65 36 38.23 37 35 37H25a1.8 1.8 0 0 1-1.79-2l1.56-14H37a3 3 0 0 1 3 3z"/><path class="cls-1" d="M40 24c0 10.9 0 10.2-.07 10.58-1.53.56-2.34.42-12.93.42a1.8 1.8 0 0 1-1.79-2l1.34-12H37a3 3 0 0 1 3 3z"/><path class="cls-3" d="M24.78 21c-1.56 14-1.26 11.26-1.56 14H11a3 3 0 0 1-3-3V22a3 3 0 0 1 2.13-2.87C10.75 19 10 19 23 19a1.8 1.8 0 0 1 1.78 2z"/><path class="cls-1" d="m24.78 21-1.34 12H13a3 3 0 0 1-3-3c0-10.78-.06-10.25.13-10.87C10.75 19 10 19 23 19a1.8 1.8 0 0 1 1.78 2z"/><path d="M47 5v4H1V5a4 4 0 0 1 2.36-3.64C4.48.85 1.45 1 43 1a4 4 0 0 1 4 4z" style="fill:#6fabe6"/><path d="M47 5v2H6a3 3 0 0 1-3-3 5.45 5.45 0 0 1 .36-2.64A3.93 3.93 0 0 1 5 1h38a4 4 0 0 1 4 4z" style="fill:#82bcf4"/><path class="cls-6" d="M43 6a1 1 0 1 1 .38-1.92A1 1 0 0 1 43 6zM39 6a1 1 0 0 1-.83-1.56 1 1 0 0 1 1.54-.15A1 1 0 0 1 39 6zM35 6a1 1 0 1 1 .92-1.38A1 1 0 0 1 35 6zM23 6H5a1 1 0 0 1 0-2h18a1 1 0 0 1 0 2zM19 24h-2a1 1 0 0 0-2 0h-2a1 1 0 0 0 0 2h3.86a4.12 4.12 0 0 1-.74 1.55l-.57-.38a1 1 0 0 0-1.12 1.64c-.52.21-1.67.36-1.4 1.43.33 1.33 2.15.59 3.27-.17 1.12.74 1.29.93 1.7.93a1 1 0 0 0 .55-1.83l-.77-.52A6.12 6.12 0 0 0 18.92 26a1 1 0 1 0 .08-2zM35.94 32.65C32.69 24 32.93 24 32 24s-.71.05-3.94 8.65a1 1 0 0 0 1.88.7l.5-1.35h3.12c.49 1.31.59 2 1.44 2a1 1 0 0 0 .94-1.35zM31.19 30l.81-2.15.81 2.15z"/></g></svg>